<svg xmlns="http://www.w3.org/2000/svg" viewBox="0 0 640 800"><defs><linearGradient id="g" x1="0" y1="0" x2="1" y2="1"><stop stop-color="#c18cff"/><stop offset="1" stop-color="#f4a62f"/></linearGradient><radialGradient id="r"><stop stop-color="#f4a62f" stop-opacity=".3"/><stop offset="1" stop-color="#08070d" stop-opacity="0"/></radialGradient></defs><circle cx="320" cy="390" r="300" fill="url(#r)"/><g opacity=".24" transform="rotate(34 320 400)"><circle cx="320" cy="400" r="270" fill="none" stroke="#c18cff"/><circle cx="320" cy="400" r="220" fill="none" stroke="#f4a62f" stroke-dasharray="8 18"/></g><path d="M320 163c-92-70-210 25-166 120-90 38-74 176 22 182-18 104 110 154 168 74 68 82 198 22 169-78 94-35 86-169-8-190 24-105-104-172-185-108z" fill="#110b1c" stroke="url(#g)" stroke-width="5"/><g fill="#c18cff"><circle cx="230" cy="260" r="12"/><circle cx="390" cy="230" r="12"/><circle cx="470" cy="350" r="12"/><circle cx="300" cy="425" r="12"/></g><path d="M230 260l160-30 80 120-170 75-70-165z" stroke="#f4a62f" stroke-width="5" fill="none"/></svg>