<svg xmlns="http://www.w3.org/2000/svg" viewBox="0 0 800 800"><defs><linearGradient id="g" x1="0" y1="0" x2="1" y2="1"><stop stop-color="#c18cff"/><stop offset="1" stop-color="#f4a62f"/></linearGradient><radialGradient id="r"><stop stop-color="#f4a62f" stop-opacity=".28"/><stop offset="1" stop-color="#08070d" stop-opacity="0"/></radialGradient><filter id="glow"><feGaussianBlur stdDeviation="8" result="b"/><feMerge><feMergeNode in="b"/><feMergeNode in="SourceGraphic"/></feMerge></filter></defs><circle cx="400" cy="400" r="360" fill="url(#r)"/><g fill="none" stroke="#f4a62f" stroke-opacity=".14"><rect x="80" y="90" width="640" height="620" rx="24"/><rect x="122" y="132" width="556" height="536" rx="32"/><rect x="164" y="174" width="472" height="452" rx="40"/><rect x="206" y="216" width="388" height="368" rx="48"/><rect x="248" y="258" width="304" height="284" rx="56"/><rect x="290" y="300" width="220" height="200" rx="64"/></g><g transform="translate(7 28) rotate(-5 400 400)"><circle cx="400" cy="400" r="210" fill="#100b19" stroke="url(#g)" stroke-width="14" stroke-dasharray="35 18"/><circle cx="400" cy="400" r="120" fill="#f4a62f" opacity=".35"/><circle cx="400" cy="400" r="58" fill="#c18cff" filter="url(#glow)"/><path d="M400 80v105M400 615v105M80 400h105M615 400h105" stroke="#c18cff" stroke-width="20"/></g></svg>
