<svg xmlns="http://www.w3.org/2000/svg" viewBox="0 0 800 800"><defs><linearGradient id="g" x1="0" y1="0" x2="1" y2="1"><stop stop-color="#f4a62f"/><stop offset="1" stop-color="#8f5ae8"/></linearGradient><radialGradient id="r"><stop stop-color="#8f5ae8" stop-opacity=".28"/><stop offset="1" stop-color="#08070d" stop-opacity="0"/></radialGradient><filter id="glow"><feGaussianBlur stdDeviation="8" result="b"/><feMerge><feMergeNode in="b"/><feMergeNode in="SourceGraphic"/></feMerge></filter></defs><circle cx="400" cy="400" r="360" fill="url(#r)"/><path d="M40 400h720M400 40v720M120 120l560 560M680 120L120 680" stroke="#f4a62f" stroke-opacity=".1" stroke-dasharray="9 18"/><g transform="translate(26 19) rotate(-6 400 400)"><g><rect x="95" y="95" width="72" height="72" rx="10" fill="#f4a62f" opacity="0.855"/><rect x="183" y="95" width="72" height="72" rx="10" fill="#f4a62f" opacity="0.6299999999999999"/><rect x="271" y="95" width="72" height="72" rx="10" fill="#8f5ae8" opacity="0.40499999999999997"/><rect x="359" y="95" width="72" height="72" rx="10" fill="#8f5ae8" opacity="0.18"/><rect x="447" y="95" width="72" height="72" rx="10" fill="#f4a62f" opacity="0.7049999999999998"/><rect x="535" y="95" width="72" height="72" rx="10" fill="#8f5ae8" opacity="0.48000000000000004"/><rect x="623" y="95" width="72" height="72" rx="10" fill="#8f5ae8" opacity="0.255"/><rect x="95" y="183" width="72" height="72" rx="10" fill="#f4a62f" opacity="0.78"/><rect x="183" y="183" width="72" height="72" rx="10" fill="#8f5ae8" opacity="0.5549999999999999"/><rect x="271" y="183" width="72" height="72" rx="10" fill="#8f5ae8" opacity="0.33"/><rect x="359" y="183" width="72" height="72" rx="10" fill="#f4a62f" opacity="0.855"/><rect x="447" y="183" width="72" height="72" rx="10" fill="#f4a62f" opacity="0.6299999999999999"/><rect x="535" y="183" width="72" height="72" rx="10" fill="#8f5ae8" opacity="0.40499999999999997"/><rect x="623" y="183" width="72" height="72" rx="10" fill="#8f5ae8" opacity="0.18"/><rect x="95" y="271" width="72" height="72" rx="10" fill="#f4a62f" opacity="0.7049999999999998"/><rect x="183" y="271" width="72" height="72" rx="10" fill="#8f5ae8" opacity="0.48000000000000004"/><rect x="271" y="271" width="72" height="72" rx="10" fill="#8f5ae8" opacity="0.255"/><rect x="359" y="271" width="72" height="72" rx="10" fill="#f4a62f" opacity="0.78"/><rect x="447" y="271" width="72" height="72" rx="10" fill="#8f5ae8" opacity="0.5549999999999999"/><rect x="535" y="271" width="72" height="72" rx="10" fill="#8f5ae8" opacity="0.33"/><rect x="623" y="271" width="72" height="72" rx="10" fill="#f4a62f" opacity="0.855"/><rect x="95" y="359" width="72" height="72" rx="10" fill="#f4a62f" opacity="0.6299999999999999"/><rect x="183" y="359" width="72" height="72" rx="10" fill="#8f5ae8" opacity="0.40499999999999997"/><rect x="271" y="359" width="72" height="72" rx="10" fill="#8f5ae8" opacity="0.18"/><rect x="359" y="359" width="72" height="72" rx="10" fill="#f4a62f" opacity="0.7049999999999998"/><rect x="447" y="359" width="72" height="72" rx="10" fill="#8f5ae8" opacity="0.48000000000000004"/><rect x="535" y="359" width="72" height="72" rx="10" fill="#8f5ae8" opacity="0.255"/><rect x="623" y="359" width="72" height="72" rx="10" fill="#f4a62f" opacity="0.78"/><rect x="95" y="447" width="72" height="72" rx="10" fill="#8f5ae8" opacity="0.5549999999999999"/><rect x="183" y="447" width="72" height="72" rx="10" fill="#8f5ae8" opacity="0.33"/><rect x="271" y="447" width="72" height="72" rx="10" fill="#f4a62f" opacity="0.855"/><rect x="359" y="447" width="72" height="72" rx="10" fill="#f4a62f" opacity="0.6299999999999999"/><rect x="447" y="447" width="72" height="72" rx="10" fill="#8f5ae8" opacity="0.40499999999999997"/><rect x="535" y="447" width="72" height="72" rx="10" fill="#8f5ae8" opacity="0.18"/><rect x="623" y="447" width="72" height="72" rx="10" fill="#f4a62f" opacity="0.7049999999999998"/><rect x="95" y="535" width="72" height="72" rx="10" fill="#8f5ae8" opacity="0.48000000000000004"/><rect x="183" y="535" width="72" height="72" rx="10" fill="#8f5ae8" opacity="0.255"/><rect x="271" y="535" width="72" height="72" rx="10" fill="#f4a62f" opacity="0.78"/><rect x="359" y="535" width="72" height="72" rx="10" fill="#8f5ae8" opacity="0.5549999999999999"/><rect x="447" y="535" width="72" height="72" rx="10" fill="#8f5ae8" opacity="0.33"/><rect x="535" y="535" width="72" height="72" rx="10" fill="#f4a62f" opacity="0.855"/><rect x="623" y="535" width="72" height="72" rx="10" fill="#f4a62f" opacity="0.6299999999999999"/><rect x="95" y="623" width="72" height="72" rx="10" fill="#8f5ae8" opacity="0.40499999999999997"/><rect x="183" y="623" width="72" height="72" rx="10" fill="#8f5ae8" opacity="0.18"/><rect x="271" y="623" width="72" height="72" rx="10" fill="#f4a62f" opacity="0.7049999999999998"/><rect x="359" y="623" width="72" height="72" rx="10" fill="#8f5ae8" opacity="0.48000000000000004"/><rect x="447" y="623" width="72" height="72" rx="10" fill="#8f5ae8" opacity="0.255"/><rect x="535" y="623" width="72" height="72" rx="10" fill="#f4a62f" opacity="0.78"/><rect x="623" y="623" width="72" height="72" rx="10" fill="#8f5ae8" opacity="0.5549999999999999"/></g></g></svg>
