<svg xmlns="http://www.w3.org/2000/svg" viewBox="0 0 800 800"><defs><linearGradient id="g" x1="0" y1="0" x2="1" y2="1"><stop stop-color="#e29a31"/><stop offset="1" stop-color="#a76cf6"/></linearGradient><radialGradient id="r"><stop stop-color="#a76cf6" stop-opacity=".28"/><stop offset="1" stop-color="#08070d" stop-opacity="0"/></radialGradient><filter id="glow"><feGaussianBlur stdDeviation="8" result="b"/><feMerge><feMergeNode in="b"/><feMergeNode in="SourceGraphic"/></feMerge></filter></defs><circle cx="400" cy="400" r="360" fill="url(#r)"/><g fill="#e29a31" opacity=".14"><circle cx="80" cy="90" r="3"/><circle cx="185" cy="90" r="4"/><circle cx="290" cy="90" r="5"/><circle cx="395" cy="90" r="3"/><circle cx="500" cy="90" r="4"/><circle cx="605" cy="90" r="5"/><circle cx="710" cy="90" r="3"/><circle cx="80" cy="235" r="4"/><circle cx="185" cy="235" r="5"/><circle cx="290" cy="235" r="3"/><circle cx="395" cy="235" r="4"/><circle cx="500" cy="235" r="5"/><circle cx="605" cy="235" r="3"/><circle cx="710" cy="235" r="4"/><circle cx="80" cy="380" r="5"/><circle cx="185" cy="380" r="3"/><circle cx="290" cy="380" r="4"/><circle cx="395" cy="380" r="5"/><circle cx="500" cy="380" r="3"/><circle cx="605" cy="380" r="4"/><circle cx="710" cy="380" r="5"/><circle cx="80" cy="525" r="3"/><circle cx="185" cy="525" r="4"/><circle cx="290" cy="525" r="5"/><circle cx="395" cy="525" r="3"/><circle cx="500" cy="525" r="4"/><circle cx="605" cy="525" r="5"/><circle cx="710" cy="525" r="3"/><circle cx="80" cy="670" r="4"/><circle cx="185" cy="670" r="5"/><circle cx="290" cy="670" r="3"/><circle cx="395" cy="670" r="4"/><circle cx="500" cy="670" r="5"/><circle cx="605" cy="670" r="3"/><circle cx="710" cy="670" r="4"/></g><g transform="translate(5 -10) rotate(-2 400 400)"><circle cx="360" cy="400" r="250" fill="#100b19" stroke="url(#g)" stroke-width="8"/><path d="M110 400h500M360 150c-135 120-135 380 0 500M360 150c135 120 135 380 0 500" fill="none" stroke="#e29a31" stroke-width="7"/><path d="M575 205c100 55 145 145 120 235M690 440l-55-60 80-20M145 590c-75-65-105-155-70-240M75 350l55 60-80 20" fill="none" stroke="#a76cf6" stroke-width="16"/></g></svg>
