<svg xmlns="http://www.w3.org/2000/svg" viewBox="0 0 800 800"><defs><linearGradient id="g" x1="0" y1="0" x2="1" y2="1"><stop stop-color="#a76cf6"/><stop offset="1" stop-color="#f4a62f"/></linearGradient><radialGradient id="r"><stop stop-color="#f4a62f" stop-opacity=".28"/><stop offset="1" stop-color="#08070d" stop-opacity="0"/></radialGradient><filter id="glow"><feGaussianBlur stdDeviation="8" result="b"/><feMerge><feMergeNode in="b"/><feMergeNode in="SourceGraphic"/></feMerge></filter></defs><circle cx="400" cy="400" r="360" fill="url(#r)"/><circle cx="400" cy="400" r="330" fill="none" stroke="#a76cf6" stroke-opacity=".18" stroke-width="2"/><circle cx="400" cy="400" r="275" fill="none" stroke="#f4a62f" stroke-opacity=".15" stroke-dasharray="12 22"/><g transform="translate(-27 -8) rotate(11 400 400)"><g fill="#100b19" stroke="url(#g)" stroke-width="7"><rect x="140" y="115" width="520" height="155" rx="25"/><rect x="140" y="325" width="520" height="155" rx="25"/><rect x="140" y="535" width="520" height="155" rx="25"/></g><g fill="#a76cf6"><circle cx="205" cy="192" r="18"/><circle cx="265" cy="192" r="18"/><circle cx="205" cy="402" r="18"/><circle cx="265" cy="402" r="18"/><circle cx="205" cy="612" r="18"/><circle cx="265" cy="612" r="18"/></g><path d="M340 192h250M340 402h250M340 612h250" stroke="#f4a62f" stroke-width="15" stroke-linecap="round"/></g></svg>
