<svg xmlns="http://www.w3.org/2000/svg" viewBox="0 0 800 800"><defs><linearGradient id="g" x1="0" y1="0" x2="1" y2="1"><stop stop-color="#a76cf6"/><stop offset="1" stop-color="#f4a62f"/></linearGradient><radialGradient id="r"><stop stop-color="#f4a62f" stop-opacity=".28"/><stop offset="1" stop-color="#08070d" stop-opacity="0"/></radialGradient><filter id="glow"><feGaussianBlur stdDeviation="8" result="b"/><feMerge><feMergeNode in="b"/><feMergeNode in="SourceGraphic"/></feMerge></filter></defs><circle cx="400" cy="400" r="360" fill="url(#r)"/><path d="M45 650Q220 420 385 540T755 190" fill="none" stroke="#f4a62f" stroke-opacity=".2" stroke-width="3"/><path d="M70 705Q250 460 420 585T735 250" fill="none" stroke="#a76cf6" stroke-opacity=".16" stroke-width="2"/><g transform="translate(28 -23) rotate(-9 400 400)"><path d="M390 620c-75-135-90-330 35-475 125 145 110 340 35 475z" fill="#100b19" stroke="url(#g)" stroke-width="9"/><circle cx="425" cy="325" r="58" fill="#f4a62f" opacity=".65"/><path d="M355 515l-115 90 25-155 95-65M465 515l115 90-25-155-95-65M390 620l35 105 35-105" fill="#a76cf6" opacity=".8"/></g></svg>
